# xmcd
#
# Track frame offsets: 
#        150
#        17051
#        32861
#        45768
#        59838
#        74620
#        87828
#        100155
#        112192
#        127818
#        140852
#        153471
#        175016
#        190705
#
# Disc length: 2806 seconds
#
# Revision: 0
# Processed by: cddbd v1.5.2PL0 Copyright (c) Steve Scherf et al.
# Submitted via: ExactAudioCopy v1.3
#
DISCID=c10af40e
DTITLE=Fenton Robinson - Mellow Fellow
DYEAR=1993
DGENRE=Chicago Blues, Electric Blues
TTITLE0=Somebody Loan Me A Dime
TTITLE1=The Sky Is Crying
TTITLE2=Smmokestack Lightning
TTITLE3=Little Red Rooster
TTITLE4=Moanin' For My Baby
TTITLE5=Don't Start Me To Talkin'
TTITLE6=Stormy Monday
TTITLE7=Leave You In The Arms (Of Your Other Man)
TTITLE8=Let Me Come On Home
TTITLE9=The Getaway
TTITLE10=Sideman
TTITLE11=Give You Some Air
TTITLE12=I'm Not Through Loving You
TTITLE13=Mellow Fellow
EXTD=
EXTT0=
EXTT1=
EXTT2=
EXTT3=
EXTT4=
EXTT5=
EXTT6=
EXTT7=
EXTT8=
EXTT9=
EXTT10=
EXTT11=
EXTT12=
EXTT13=
PLAYORDER=
